<svg viewBox="0 0 20 20" xmlns="http://www.w3.org/2000/svg">
<path d="M10 1.25C5.17578 1.25 1.25 5.17578 1.25 10C1.25 14.8242 5.17578 18.75 10 18.75C14.8242 18.75 18.75 14.8242 18.75 10C18.75 5.17578 14.8242 1.25 10 1.25ZM10 2.5C14.1536 2.5 17.5 5.85286 17.5 10C17.5 14.1536 14.1536 17.5 10 17.5C5.85286 17.5 2.5 14.1536 2.5 10C2.5 5.85286 5.85286 2.5 10 2.5ZM6.25 8.75C5.5599 8.75 5 9.3099 5 10C5 10.6901 5.5599 11.25 6.25 11.25C6.9401 11.25 7.5 10.6901 7.5 10C7.5 9.3099 6.9401 8.75 6.25 8.75ZM10 8.75C9.3099 8.75 8.75 9.3099 8.75 10C8.75 10.6901 9.3099 11.25 10 11.25C10.6901 11.25 11.25 10.6901 11.25 10C11.25 9.3099 10.6901 8.75 10 8.75ZM13.75 8.75C13.0599 8.75 12.5 9.3099 12.5 10C12.5 10.6901 13.0599 11.25 13.75 11.25C14.4401 11.25 15 10.6901 15 10C15 9.3099 14.4401 8.75 13.75 8.75Z" />
</svg>
