<svg width="16" height="17" viewBox="0 0 16 17" fill="none" xmlns="http://www.w3.org/2000/svg">
<path d="M3 2.75293C2.18229 2.75293 1.5 3.43001 1.5 4.24772V12.2529C1.5 13.0758 2.17708 13.7529 3 13.7529H5.80729L8 15.7373L10.1979 13.7529H13C13.8229 13.7529 14.5 13.0758 14.5 12.2529V4.24772C14.5 3.43001 13.8229 2.75293 13 2.75293H3ZM3 3.75293H13C13.2813 3.75293 13.5 3.97168 13.5 4.24772V12.2529C13.5 12.529 13.2813 12.7529 13 12.7529H9.80729L8 14.3883L6.19792 12.7529H3C2.71875 12.7529 2.5 12.529 2.5 12.2529V4.24772C2.5 3.97168 2.71875 3.75293 3 3.75293ZM7.5 4.75293V5.75293H8.5V4.75293H7.5ZM7.5 6.75293V11.7529H8.5V6.75293H7.5Z" fill="#7992FF"/>
</svg>
