<svg width="16" height="17" viewBox="0 0 16 17" fill="none" xmlns="http://www.w3.org/2000/svg">
<path d="M9 2.75293V3.75293H12.2917L6.02604 10.029L6.72917 10.7321L13 4.46126V7.75293H14V2.75293H9ZM4 4.75293C2.89583 4.75293 2 5.64876 2 6.75293V12.7529C2 13.8571 2.89583 14.7529 4 14.7529H10C11.1042 14.7529 12 13.8571 12 12.7529V7.75293L11 8.75293V12.7529C11 13.305 10.5521 13.7529 10 13.7529H4C3.44792 13.7529 3 13.305 3 12.7529V6.75293C3 6.20085 3.44792 5.75293 4 5.75293H8L9 4.75293H4Z" fill="#7992FF"/>
</svg>
