<svg viewBox="0 0 32 32" xmlns="http://www.w3.org/2000/svg">
<path d="M31.04 16C31.5702 16 32.003 16.4302 31.9712 16.9594C31.8647 18.7325 31.4635 20.4778 30.7821 22.1229C29.978 24.0641 28.7994 25.828 27.3137 27.3137C25.828 28.7994 24.0641 29.978 22.1229 30.7821C20.4778 31.4635 18.7325 31.8647 16.9594 31.9712C16.4302 32.003 16 31.5702 16 31.04C16 30.5098 16.4303 30.0834 16.9593 30.0473C18.48 29.9434 19.976 29.5932 21.3882 29.0082C23.0964 28.3006 24.6486 27.2635 25.9561 25.9561C27.2635 24.6486 28.3006 23.0964 29.0082 21.3882C29.5932 19.976 29.9434 18.48 30.0473 16.9593C30.0834 16.4303 30.5098 16 31.04 16Z" />
<path d="M0.959999 16C0.429808 16 -0.00300217 15.5698 0.0287914 15.0406C0.135302 13.2675 0.536476 11.5222 1.21793 9.87707C2.022 7.93586 3.20055 6.17203 4.68629 4.68629C6.17203 3.20055 7.93586 2.022 9.87707 1.21793C11.5222 0.536476 13.2675 0.135302 15.0406 0.0287914C15.5698 -0.00300217 16 0.429808 16 0.960001C16 1.49019 15.5697 1.91659 15.0407 1.95271C13.52 2.05656 12.024 2.40683 10.6118 2.99178C8.90355 3.69936 7.35139 4.73649 6.04394 6.04394C4.73649 7.35139 3.69936 8.90355 2.99178 10.6118C2.40683 12.024 2.05656 13.52 1.95271 15.0407C1.91659 15.5697 1.49019 16 0.959999 16Z" />
</svg>
