<svg viewBox="0 0 48 48" xmlns="http://www.w3.org/2000/svg">
<path d="M24.1543 0.78818L28.5469 5.2058L32.9541 0.78818L33.1016 0.641241L33.248 0.78818L37.7959 5.35409L42.335 9.91999L46.8896 14.4859L47.168 14.765L46.8896 15.044L42.6201 19.3309L46.8896 23.6191L47.168 23.8981L46.8896 24.1772L42.6201 28.4627L47.083 32.9544L47.3604 33.2335L47.083 33.5125L42.8193 37.7994L42.8213 37.8007L42.543 38.0798L37.9883 42.6444L37.9893 42.6457L33.4492 47.2116L33.3018 47.3599L33.1553 47.2116L28.5459 42.5877L24.1543 47.0067L24.0068 47.155L23.8594 47.0067L19.4521 42.5877L14.8604 47.2103L14.7139 47.3585L14.5664 47.2116L10.0117 42.6444L5.46484 38.0784L0.916992 33.5125L0.639648 33.2335L0.916992 32.9544L5.38574 28.4627L1.11621 24.1772L0.838867 23.8981L1.11719 23.6191L5.39258 19.3309L1.12402 15.044L0.84668 14.7663L1.12402 14.4872L5.66406 9.91999L10.2188 5.35409L14.7578 0.78818L14.9053 0.639893L15.0527 0.78818L19.4521 5.2058L23.8594 0.78818L24.0068 0.639893L24.1543 0.78818ZM24.1543 10.4781L24.0068 10.6264L23.8594 10.4781L19.4521 6.05913L15.0596 10.4781L10.5049 15.0454L6.24219 19.3322L10.5127 23.6191L10.79 23.8981L10.5117 24.1772L6.23633 28.4627L10.5059 32.7495L15.0537 37.3154L19.4531 41.7331L23.8594 37.3168L24.0068 37.1685L24.1543 37.3168L28.5469 41.7344L32.9541 37.3168L37.2236 33.0286L37.501 32.7495L41.7695 28.4627L37.501 24.1772L37.2236 23.8981L37.501 23.6191L41.7705 19.3309L37.501 15.044L32.9541 10.4781L28.5469 6.05913L24.1543 10.4781ZM16.2559 21.632C16.499 21.6587 16.7328 21.7787 16.9307 21.9785L18.7285 23.739L18.7314 23.7417L19.9268 24.9483L21.1299 26.1467L21.1318 26.148L23.5244 28.5638H23.5234L24.7783 29.8121L24.7793 29.8134L26.0283 31.0725L26.3037 31.3516L26.0283 31.6293L24.7793 32.8884L24.6348 33.0353L24.4883 32.8924L23.1953 31.6333L23.1914 31.6293L21.9434 30.3702V30.3688L20.7412 29.1745L20.7402 29.1718L19.5645 27.9841L18.9766 28.5719L20.0391 29.6382L21.2354 30.8366L22.4902 32.0957H22.4912L23.7393 33.3548L24.0166 33.6352L23.7393 33.9129L22.543 35.1113L22.3955 35.2583L22.249 35.1113L19.7451 32.6026H19.7441L18.5498 31.3947V31.3961L17.3457 30.1976L17.3447 30.1963L16.1484 28.9884V28.9871L14.9531 27.7913H14.9521L13.749 26.5835L13.748 26.5821C13.58 26.4113 13.4429 26.1879 13.3486 25.931C13.278 25.7382 13.2321 25.5297 13.2139 25.3163L13.2051 25.1006C13.2051 24.8125 13.2544 24.5286 13.3486 24.2715C13.4428 24.0147 13.5792 23.7913 13.7471 23.6204L14.75 22.5959L14.7529 22.5945L15.3691 21.9798C15.5957 21.7503 15.8702 21.6267 16.1514 21.6266L16.2559 21.632ZM20.9951 17.0675C21.4182 17.0676 21.8324 17.2286 22.1914 17.5312L22.3418 17.67L22.3438 17.6727L23.5361 18.8968L24.7402 20.0844L24.7412 20.0858L25.9375 21.2842H25.9385L27.1338 22.4907L28.3369 23.6892L28.3379 23.6905L29.5518 24.9132L29.5596 24.9173L29.6016 24.9334L29.6377 24.9685C29.8077 25.138 29.9465 25.362 30.042 25.6196C30.1373 25.877 30.1874 26.1623 30.1875 26.4514C30.1875 26.7407 30.1375 27.0268 30.042 27.2845C29.9465 27.5419 29.8076 27.7648 29.6377 27.9342L28.4424 29.1408L28.4414 29.1434L28.4404 29.1421L27.2373 30.3405L27.0908 30.4861L26.9443 30.3405L25.6963 29.0909H25.6953L24.4473 27.8304V27.8318L23.2441 26.6239V26.6226L22.0371 25.4605L22.0322 25.4551L20.8359 24.2473V24.2459L19.6338 23.0515L19.6328 23.0502L18.4365 21.8423V21.841L17.2422 20.6668L16.9609 20.3891L17.2402 20.1073L18.4355 18.8995L19.6465 17.6714L19.6484 17.67L19.7988 17.5312C20.1579 17.2288 20.5721 17.0675 20.9951 17.0675ZM20.2266 20.3392L21.1445 21.2532L21.1465 21.2546L22.3418 22.4611L23.5381 23.6595L24.7422 24.8674H24.7412L25.9375 26.0645L25.9404 26.0685L27.041 27.2063L27.8135 26.4365L26.8418 25.4781L26.8398 25.4767L25.6445 24.2688L24.4482 23.0717L24.4473 23.0704L23.2441 21.8625L20.9951 19.6005L20.2266 20.3392ZM15.5205 25.1019L16.4424 26.024L16.4434 26.0254L17.6104 27.2022L18.1943 26.6185L17.1475 25.6034L17.1416 25.5967L16.0947 24.5115L15.5205 25.1019ZM25.79 12.2548C26.2705 12.2549 26.739 12.4647 27.1279 12.8534L28.3838 14.041L28.3887 14.0451L29.4766 15.1289C29.8416 14.8121 30.2648 14.6409 30.6982 14.6409C31.1818 14.6411 31.6535 14.8522 32.0449 15.2435L33.2412 16.4419L34.4375 17.6512L34.4395 17.6525L35.6582 18.9008H35.6572L36.3174 19.5169L36.3242 19.5223L36.3955 19.6032C36.4627 19.6887 36.5187 19.7909 36.5605 19.9038C36.6163 20.0546 36.6455 20.2225 36.6455 20.3918L36.6396 20.5172C36.6288 20.6427 36.6024 20.7653 36.5605 20.8784C36.5046 21.0293 36.4237 21.1607 36.3242 21.2599H36.3232L35.6553 21.9259L35.6543 21.9245L34.4297 23.1513L34.4307 23.1526L33.5107 24.0801L33.5127 24.0828L33.2344 24.3618L33.1377 24.4576L33.0869 24.5101L33.0859 24.5088L32.0381 25.5589L31.8916 25.7059L31.7441 25.5589L29.2402 23.0502L26.8408 20.6452L26.8398 20.6439L24.4473 18.2281V18.2268L23.2451 17.0311L23.2441 17.0297L22.0479 15.8218L21.7705 15.5428L22.0488 15.2637L22.9639 14.3471L23.2432 14.0667L24.4473 12.8588L24.5967 12.7199C24.9546 12.4166 25.3676 12.255 25.79 12.2548ZM29.5635 18.1985L29.5342 18.2295L28.6084 19.157L29.5332 20.0858H29.5342L30.7305 21.2842L31.8359 22.3964L32.8867 21.3368V21.3354L33.8232 20.3904L32.8613 19.4603L32.8574 19.4576L31.6543 18.2497L30.6016 17.1955L29.5635 18.1985ZM25.0195 15.5428L25.9385 16.4716L26.9873 17.5218L27.7617 16.7466L26.8398 15.8232L25.79 14.7717L25.0195 15.5428Z" />
</svg>
