<svg width="16" height="17" viewBox="0 0 16 17" fill="none" xmlns="http://www.w3.org/2000/svg">
<path d="M4.5 2.75293C3.67708 2.75293 3 3.43001 3 4.25293V13.2529C3 14.0758 3.67708 14.7529 4.5 14.7529H11.5C12.3229 14.7529 13 14.0758 13 13.2529V6.0446L9.70833 2.75293H4.5ZM4.5 3.75293H9V6.75293H12V13.2529C12 13.5342 11.7813 13.7529 11.5 13.7529H4.5C4.21875 13.7529 4 13.5342 4 13.2529V4.25293C4 3.97168 4.21875 3.75293 4.5 3.75293ZM10 4.46126L11.2917 5.75293H10V4.46126ZM6 8.75293V9.75293H10V8.75293H6ZM6 10.7529V11.7529H9V10.7529H6Z" fill="#7992FF"/>
</svg>
