<svg viewBox="0 0 20 20" xmlns="http://www.w3.org/2000/svg">
<path d="M10.0053 0.500031C9.71885 0.497427 9.45583 0.658885 9.32822 0.914094L6.7527 6.06774L0.635515 7.00784C0.356869 7.05212 0.125099 7.24743 0.0365573 7.51566C-0.0493807 7.78649 0.0209319 8.08076 0.218849 8.28128L4.45062 12.5131L3.50791 18.6355C3.46624 18.9141 3.58343 19.1953 3.8126 19.3594C4.04437 19.5235 4.34645 19.5469 4.59645 19.4141L10.0001 16.5964L15.4037 19.4141C15.6537 19.5469 15.9558 19.5235 16.1876 19.3594C16.4168 19.1953 16.534 18.9141 16.4923 18.6355L15.5496 12.5131L19.7813 8.28128C19.9793 8.08076 20.0496 7.78649 19.9636 7.51566C19.8751 7.24743 19.6433 7.05212 19.3647 7.00784L13.2475 6.06774L10.672 0.914094C10.5444 0.66149 10.2866 0.502635 10.0053 0.500031Z" />
<path d="M9.32822 0.914094C9.45583 0.658885 9.71885 0.497427 10.0053 0.500031L10.0001 16.5964L4.59645 19.4141C4.34645 19.5469 4.04437 19.5235 3.8126 19.3594C3.58343 19.1953 3.46624 18.9141 3.50791 18.6355L4.45062 12.5131L0.218849 8.28128C0.0209319 8.08076 -0.0493807 7.78649 0.0365573 7.51566C0.125099 7.24743 0.356869 7.05212 0.635515 7.00784L6.7527 6.06774L9.32822 0.914094Z" fill="#5A6BFA"/>
</svg>
